<?xml version="1.0" standalone="no"?>
<!DOCTYPE svg PUBLIC "-//W3C//DTD SVG 20010904//EN"
 "http://www.w3.org/TR/2001/REC-SVG-20010904/DTD/svg10.dtd">
<svg version="1.0" xmlns="http://www.w3.org/2000/svg"
 width="1024.000000pt" height="1024.000000pt" viewBox="0 0 1024.000000 1024.000000"
 preserveAspectRatio="xMidYMid meet">

<g transform="translate(0.000000,1024.000000) scale(0.100000,-0.100000)"
fill="#000000" stroke="none">
<path d="M4144 8361 c-2 -2 -1 -57 3 -123 l6 -118 -256 0 -257 0 0 -120 0
-120 -130 0 -130 0 0 -240 0 -240 -130 0 -130 0 0 -120 0 -120 -130 0 -130 0
0 -120 0 -120 -124 0 c-146 0 -136 11 -136 -147 l0 -103 -120 0 -120 0 0 -250
0 -250 119 0 c99 0 120 3 125 16 3 9 6 119 6 245 l0 229 125 0 125 0 0 -250 0
-250 -130 0 -130 0 0 -245 0 -245 128 0 129 0 6 -236 c4 -130 5 -240 1 -245
-3 -5 -63 -9 -135 -9 l-129 0 0 -120 0 -120 265 0 265 0 0 365 0 365 130 0
130 0 0 368 0 367 125 0 125 0 0 -242 0 -243 130 0 130 0 0 370 0 370 119 0
118 0 8 -241 c5 -165 11 -242 19 -244 6 -2 62 -5 124 -7 l112 -3 0 117 0 117
120 3 120 3 0 -236 0 -237 23 -6 c12 -3 70 -6 130 -6 l107 0 0 128 c0 71 3
182 6 248 l7 119 80 -3 c45 -2 100 -1 124 3 l42 6 3 122 3 122 128 3 127 3 0
114 0 115 375 0 c206 0 378 -1 383 -2 4 -2 8 -54 9 -116 l1 -114 124 -1 123
-2 3 -127 3 -128 124 0 125 0 0 -308 c0 -170 3 -391 7 -490 l6 -182 121 2
c115 2 117 2 29 5 -71 3 -93 7 -93 18 0 7 -8 16 -17 18 -17 4 -17 5 0 6 9 0
17 6 17 12 0 6 -9 9 -20 6 -13 -3 -20 0 -20 9 0 8 9 14 20 14 17 0 20 7 20 39
0 30 -4 40 -20 44 -14 4 -18 10 -14 22 5 13 9 14 15 3 6 -9 9 -9 9 -1 0 8 28
13 88 16 l87 3 -110 3 c-107 4 -108 4 -45 11 36 4 91 8 123 9 l57 1 0 -360 0
-360 -125 0 -125 0 0 120 0 120 -130 0 -130 0 0 29 c0 20 -6 30 -20 34 -11 3
-19 11 -18 19 2 7 -5 12 -14 12 -11 -1 -18 5 -18 15 0 10 -11 24 -25 31 -14 7
-25 18 -25 24 -1 24 -49 65 -81 69 -19 2 19 5 84 5 l117 2 0 125 0 125 -507
-2 -508 -3 -3 -117 -3 -118 -72 0 c-40 0 -96 -3 -124 -6 l-53 -7 0 -123 0
-124 104 0 c58 0 116 4 130 10 20 7 24 6 19 -5 -3 -8 -9 -15 -14 -15 -5 0 -14
-11 -19 -25 -5 -14 -16 -25 -24 -25 -7 0 -24 -13 -37 -30 -13 -16 -30 -30 -36
-30 -7 0 -13 -6 -13 -13 0 -8 -11 -19 -24 -27 -13 -7 -27 -21 -29 -31 -3 -12
-11 -17 -20 -13 -9 3 -16 -3 -20 -15 -5 -20 -12 -21 -144 -21 -127 0 -140 2
-153 20 -8 11 -20 20 -27 20 -7 0 -13 9 -13 20 0 13 -7 20 -20 20 -13 0 -18 5
-14 15 4 10 0 15 -15 15 -12 0 -21 6 -21 15 0 8 -7 15 -15 15 -8 0 -15 7 -15
15 0 8 -7 15 -15 15 -8 0 -15 7 -15 15 0 8 -7 15 -15 15 -8 0 -15 6 -15 14 0
8 -6 17 -12 19 -7 3 40 6 105 6 l117 1 0 130 0 130 -125 0 c-95 0 -125 3 -124
13 1 6 1 60 0 120 l-1 107 -505 0 -505 0 0 -125 0 -125 118 -1 c64 -1 104 -4
88 -6 -17 -3 -30 -12 -33 -24 -3 -10 -13 -19 -23 -19 -10 0 -20 -9 -23 -21 -3
-11 -15 -23 -26 -26 -12 -3 -21 -14 -21 -24 0 -11 -7 -19 -16 -19 -9 0 -18 -9
-21 -19 -3 -11 -13 -21 -24 -24 -13 -3 -19 -14 -19 -31 l0 -26 -130 0 -130 0
0 -120 0 -120 -119 0 c-99 0 -120 -3 -125 -16 -3 -9 -6 -67 -6 -130 l0 -114
125 0 125 0 0 -240 0 -240 128 -2 127 -2 -103 -5 -102 -6 30 -29 c17 -16 34
-26 37 -22 4 3 1 6 -5 6 -7 0 -12 5 -12 12 0 6 7 4 18 -5 10 -10 22 -14 27
-10 4 5 3 -2 -4 -14 -7 -14 -8 -24 -1 -28 5 -3 10 0 10 8 0 8 6 17 13 20 9 3
12 -4 9 -29 -5 -37 23 -78 37 -55 5 8 10 2 14 -18 4 -18 13 -31 22 -31 8 0 15
-7 15 -15 0 -13 49 -15 380 -15 l380 0 0 120 0 120 130 0 130 0 0 126 0 126
120 -4 120 -3 0 110 c0 73 4 115 12 123 17 17 248 17 249 0 1 -7 2 -20 3 -28
2 -8 3 -57 4 -107 l2 -93 125 0 125 0 0 -125 0 -125 113 -1 c61 -1 119 -2 127
-3 12 -1 16 -23 18 -119 l3 -117 384 0 c378 0 385 0 385 20 0 11 7 20 15 20 8
0 15 7 15 16 0 8 5 12 11 9 6 -4 13 2 16 14 3 12 12 21 20 21 9 0 13 6 10 14
-4 10 -1 13 8 9 8 -3 18 2 21 11 3 9 12 16 20 16 8 0 14 7 14 15 0 8 5 15 10
15 6 0 10 9 10 20 0 14 7 21 23 22 12 1 -23 5 -78 8 l-100 6 118 2 117 2 0
-215 0 -215 122 0 c67 0 119 -3 115 -6 -3 -3 -59 -7 -124 -7 l-118 -2 -3 -247
-2 -248 -124 0 -124 0 -8 -227 c-7 -186 -10 -207 -12 -115 l-3 112 -120 0
-120 0 2 -122 1 -123 -126 -3 -126 -3 0 -119 0 -119 -127 -3 -128 -3 -2 -120
-1 -120 -630 -3 -630 -2 -6 36 c-4 19 -6 75 -5 122 l2 87 -139 5 c-76 3 -132
7 -124 8 12 2 15 22 15 114 l0 113 -255 11 c-209 9 -232 11 -127 12 l127 2 0
115 0 114 -127 3 -128 3 -3 115 -3 115 -122 0 -122 0 -5 245 -5 245 -115 6
-115 5 117 2 116 2 -3 203 c-2 111 -4 208 -4 215 -1 9 -33 12 -126 12 l-125 0
0 125 0 125 120 0 120 0 0 108 0 109 -182 6 c-99 4 -270 7 -380 7 l-198 0 0
119 0 120 -52 6 c-29 3 -87 5 -128 3 l-75 -3 0 -587 0 -588 122 0 122 0 3
-122 3 -123 257 -3 257 -2 3 -118 3 -117 133 -3 134 -3 -7 -239 -8 -240 132 0
131 0 0 -125 0 -125 125 0 125 0 0 -245 0 -245 -120 0 -120 0 0 120 0 120
-135 0 -135 0 0 -120 0 -120 -130 0 -130 0 0 -125 0 -125 135 0 135 0 0 119 0
120 125 3 125 3 0 -122 0 -123 1400 0 1400 0 0 120 0 120 128 0 127 0 -3 -120
-4 -120 266 0 266 0 0 125 0 125 -260 0 -260 0 0 120 0 120 -135 0 -135 0 0
-120 0 -120 -113 0 -114 0 -6 113 c-9 140 -9 335 -1 365 6 21 10 22 125 22
l119 0 0 120 0 120 130 0 130 0 0 130 0 130 -122 2 -123 2 118 3 117 4 0 104
0 105 135 0 135 0 0 120 0 120 258 2 257 3 3 123 3 122 124 0 125 0 0 590 0
590 -125 0 -125 0 0 120 0 119 -127 3 -128 3 -3 737 -2 737 127 3 128 3 0 125
0 125 -125 2 -125 1 -3 121 -3 121 -129 0 -130 0 0 120 0 120 -130 0 -130 0 0
240 0 240 -130 0 -130 0 0 120 0 120 -250 0 -249 0 -3 120 -3 120 -893 3
c-492 1 -895 0 -898 -2z m-4 -601 l0 -120 -120 0 -120 0 0 115 0 114 118 4
c64 1 118 4 120 5 1 1 2 -52 2 -118z m750 -1 l0 -119 -245 0 -245 0 0 120 0
121 245 -2 245 -1 0 -119z m428 -128 l352 -1 0 -114 0 -115 -115 1 c-64 0
-113 3 -110 7 4 3 55 9 113 12 l107 5 -112 2 c-100 2 -111 4 -108 20 2 9 4 25
4 35 1 9 8 17 16 17 8 0 15 5 15 10 0 6 9 10 20 10 13 0 20 7 20 20 0 15 -7
20 -25 20 -18 0 -25 5 -25 20 0 18 7 20 75 20 l75 0 -1 -32 c0 -18 -4 -54 -8
-80 -7 -43 -6 -48 11 -48 16 0 18 9 18 84 l0 85 -82 3 c-138 5 -128 13 -128
-108 l0 -104 -136 0 -135 0 2 -117 1 -118 -131 -3 -131 -3 0 -118 c0 -65 -2
-120 -4 -122 -2 -2 -56 -3 -120 -1 l-116 3 0 234 0 234 118 3 117 3 3 110 c1
61 4 115 7 122 2 7 16 10 32 8 15 -2 187 -4 381 -4z m-1428 -116 l0 -115 -120
0 -120 0 0 115 0 115 120 0 120 0 0 -115z m510 0 l0 -115 -125 0 -125 0 0 115
0 115 125 0 125 0 0 -115z m-760 -240 l0 -115 -125 0 -125 0 0 115 0 115 125
0 125 0 0 -115z m508 -2 l3 -113 -126 0 -125 0 0 115 0 116 123 -3 122 -3 3
-112z m2542 2 l0 -115 -120 0 -120 0 0 115 0 115 120 0 120 0 0 -115z m-1397
-382 l-112 -4 -4 -107 -3 -107 -2 113 -2 112 118 -2 117 -2 -112 -3z m-371
-315 c-4 -143 -9 -157 -10 -35 -1 64 1 117 6 117 4 0 6 -37 4 -82z m228 72 c0
-13 -20 -13 -40 0 -12 8 -9 10 13 10 15 0 27 -4 27 -10z m-752 -1632 l2 -168
-125 0 -125 0 0 164 c0 122 3 166 13 170 6 2 62 4 122 3 l110 -2 3 -167z
m2029 158 c2 -2 5 -601 4 -826 l-1 -135 -370 -4 -370 -4 0 24 c0 26 -31 59
-55 59 -8 0 -15 8 -15 18 0 9 -14 26 -30 37 -16 11 -30 26 -30 33 0 6 -5 12
-11 12 -13 0 -39 25 -39 38 0 12 -43 34 -61 30 -11 -2 -14 20 -17 125 l-3 127
126 0 125 0 0 -120 0 -120 255 0 255 0 0 190 0 190 -125 0 -125 0 0 171 0 172
243 -8 c133 -4 243 -8 244 -9z m-2537 -351 l0 -355 255 0 255 0 0 120 0 120
125 0 125 0 0 -119 c0 -104 -2 -120 -17 -127 -10 -4 -24 -6 -30 -5 -7 1 -13
-7 -13 -19 0 -13 -7 -20 -20 -20 -13 0 -20 -7 -20 -20 0 -14 -7 -20 -21 -20
-12 0 -23 -8 -26 -20 -3 -11 -12 -20 -19 -20 -8 0 -14 -9 -14 -20 0 -13 -7
-20 -20 -20 -11 0 -20 -7 -20 -15 0 -8 -7 -15 -15 -15 -10 0 -15 -10 -15 -30
l0 -30 -374 0 -375 0 -3 233 c-2 127 -2 346 0 485 l4 252 119 0 119 0 0 -355z
m3581 111 c2 -2 3 -59 1 -125 l-3 -121 -257 -1 c-141 -1 -243 -4 -227 -8 17
-4 -39 -5 -122 -3 l-153 4 0 -111 0 -111 120 0 120 0 0 -125 0 -125 -125 0
-125 0 0 240 0 240 125 0 125 0 0 118 c0 65 3 122 7 125 7 7 507 10 514 3z
m-4408 -263 c-34 -2 -93 -2 -130 0 -37 2 -9 3 62 3 72 0 102 -1 68 -3z m4010
0 c-7 -2 -21 -2 -30 0 -10 3 -4 5 12 5 17 0 24 -2 18 -5z m397 -333 l0 -340
-125 0 -125 0 0 230 0 230 120 0 120 0 0 110 c0 61 2 110 5 110 3 0 5 -153 5
-340z m-4314 148 c4 -7 3 -8 -4 -4 -7 4 -12 2 -12 -5 0 -7 -3 -10 -6 -6 -6 5
3 27 11 27 2 0 7 -5 11 -12z m-36 -8 c0 -6 -50 -10 -131 -10 -84 0 -128 4
-124 10 4 6 58 10 131 10 76 0 124 -4 124 -10z m4022 -7 c-40 -2 -103 -2 -140
0 -37 2 -4 3 73 3 77 0 107 -2 67 -3z m-4282 -243 l0 -230 -125 0 -125 0 0
230 0 230 125 0 125 0 0 -230z m767 -92 c-2 -13 -4 -5 -4 17 -1 22 1 32 4 23
2 -10 2 -28 0 -40z m-47 -58 c0 -5 -4 -10 -10 -10 -5 0 -10 5 -10 10 0 6 5 10
10 10 6 0 10 -4 10 -10z m-443 -57 c-3 -10 -5 -4 -5 12 0 17 2 24 5 18 2 -7 2
-21 0 -30z m-7 -143 l0 -120 -130 0 -130 0 0 120 0 120 130 0 130 0 0 -120z
m4080 0 l0 -120 -130 0 -130 0 0 120 0 120 130 0 130 0 0 -120z m-3632 -827
c-32 -2 -86 -2 -120 0 -35 2 -9 3 57 3 66 0 94 -1 63 -3z m2800 -250 c-32 -2
-86 -2 -120 0 -35 2 -9 3 57 3 66 0 94 -1 63 -3z m-2335 -250 c-24 -2 -62 -2
-85 0 -24 2 -5 4 42 4 47 0 66 -2 43 -4z m2085 0 c-32 -2 -86 -2 -120 0 -35 2
-9 3 57 3 66 0 94 -1 63 -3z"/>
<path d="M5654 7530 c0 -52 1 -74 3 -47 2 26 2 68 0 95 -2 26 -3 4 -3 -48z"/>
<path d="M5530 7575 c0 -8 7 -15 15 -15 8 0 15 7 15 15 0 8 -7 15 -15 15 -8 0
-15 -7 -15 -15z"/>
<path d="M5567 7523 c-4 -3 -7 -14 -7 -24 0 -9 -9 -19 -21 -22 -33 -9 -17 -32
22 -32 37 0 46 16 35 61 -6 24 -17 30 -29 17z"/>
<path d="M3410 7280 c0 -55 3 -100 8 -100 4 0 7 45 7 100 0 55 -3 100 -7 100
-5 0 -8 -45 -8 -100z"/>
<path d="M3483 7373 c26 -2 68 -2 95 0 26 2 4 3 -48 3 -52 0 -74 -1 -47 -3z"/>
<path d="M3613 7300 c0 -36 2 -50 4 -32 2 17 2 47 0 65 -2 17 -4 3 -4 -33z"/>
<path d="M6461 7268 c0 -49 3 -88 7 -88 4 0 6 33 4 73 -5 107 -10 114 -11 15z"/>
<path d="M6194 5035 c0 -77 2 -107 3 -67 2 40 2 103 0 140 -2 37 -3 4 -3 -73z"/>
<path d="M6191 4874 c0 -11 3 -14 6 -6 3 7 2 16 -1 19 -3 4 -6 -2 -5 -13z"/>
<path d="M3683 4713 c9 -2 23 -2 30 0 6 3 -1 5 -18 5 -16 0 -22 -2 -12 -5z"/>
<path d="M4170 6150 c0 -5 5 -10 11 -10 5 0 7 5 4 10 -3 6 -8 10 -11 10 -2 0
-4 -4 -4 -10z"/>
<path d="M4338 6023 c12 -2 32 -2 45 0 12 2 2 4 -23 4 -25 0 -35 -2 -22 -4z"/>
<path d="M3141 5540 l3 -110 118 0 118 0 -2 113 -2 112 -3 -107 -4 -108 -104
0 -105 0 0 105 c0 66 -4 105 -10 105 -7 0 -10 -39 -9 -110z"/>
<path d="M3213 5643 c15 -2 37 -2 50 0 12 2 0 4 -28 4 -27 0 -38 -2 -22 -4z"/>
<path d="M6906 5511 c-4 -5 -2 -20 3 -33 8 -21 9 -20 9 10 -1 34 -3 38 -12 23z"/>
<path d="M4661 3778 c-1 -32 2 -38 19 -38 13 0 20 -7 20 -20 0 -13 7 -20 20
-20 11 0 20 -7 20 -15 0 -8 7 -15 15 -15 8 0 15 -9 15 -20 0 -12 7 -20 16 -20
9 0 18 -9 21 -21 4 -12 11 -18 20 -15 9 4 17 -1 20 -13 3 -11 13 -21 24 -24
13 -3 17 -11 13 -21 -5 -14 11 -16 150 -16 104 0 156 4 156 11 0 14 25 39 39
39 6 0 11 7 11 15 0 8 4 15 9 15 5 0 27 18 50 40 22 22 45 40 51 40 5 0 7 7 4
15 -4 9 3 16 20 21 17 4 26 13 26 25 0 18 -14 19 -364 19 l-365 0 -4 28 c-3
22 -4 20 -6 -10z"/>
<path d="M4402 3158 l3 -112 633 0 632 -1 0 113 0 112 -635 0 -636 0 3 -112z
m953 87 c6 -2 -63 -4 -152 -4 -156 -1 -163 -2 -163 -21 0 -19 7 -20 100 -20
93 0 100 -1 100 -20 0 -17 7 -20 40 -20 38 0 40 -2 40 -30 0 -23 4 -30 20 -30
11 0 20 -4 20 -10 0 -5 13 -10 29 -10 17 0 33 -4 36 -10 4 -7 -127 -10 -387
-10 -329 1 -390 3 -375 14 9 7 17 21 17 30 0 12 10 16 40 16 32 0 40 4 40 19
0 16 11 19 100 26 55 3 100 11 100 16 0 5 -37 10 -82 11 -46 1 -64 3 -40 5 34
3 42 8 42 24 0 18 -9 19 -142 21 -88 2 -33 5 142 8 267 5 452 3 475 -5z m-907
-2 c-14 -4 -18 -19 -21 -86 l-3 -82 -2 88 c-2 84 -1 87 21 86 16 -1 17 -3 5
-6z m162 -177 c14 -2 -15 -4 -65 -4 -49 -1 -85 2 -78 6 10 6 83 6 143 -2z
m998 -3 c-32 -2 -84 -2 -115 0 -32 2 -6 3 57 3 63 0 89 -1 58 -3z"/>
<path d="M4910 2740 l0 -60 125 0 125 0 0 60 0 60 -125 0 -125 0 0 -60z m198
33 c-21 -2 -55 -2 -75 0 -21 2 -4 4 37 4 41 0 58 -2 38 -4z m42 -53 c0 -10 -5
-22 -10 -25 -14 -9 -220 6 -220 15 0 12 68 22 137 21 34 -1 64 3 68 9 9 15 25
2 25 -20z"/>
<path d="M5000 2718 c0 -4 30 -8 68 -7 77 1 73 6 -10 12 -32 2 -58 0 -58 -5z"/>
<path d="M4428 2323 c6 -2 18 -2 25 0 6 3 1 5 -13 5 -14 0 -19 -2 -12 -5z"/>
<path d="M4635 2320 c3 -5 8 -10 11 -10 2 0 4 5 4 10 0 6 -5 10 -11 10 -5 0
-7 -4 -4 -10z"/>
<path d="M2600 1925 l0 -125 130 0 130 0 0 125 0 125 -130 0 -130 0 0 -125z"/>
</g>
</svg>
